HIERARCHY
ROOT Hips
{
 OFFSET 0.000000 0.000000 0.000000
 CHANNELS 6 Xposition Yposition Zposition Yrotation Xrotation Zrotation
 JOINT Chest
 {
  OFFSET 0.000000 9.588913 -0.003946
  CHANNELS 3 Yrotation Xrotation Zrotation
  JOINT Chest2
  {
   OFFSET 0.000000 9.541882 0.008053
   CHANNELS 3 Yrotation Xrotation Zrotation
   JOINT Chest3
   {
    OFFSET 0.000000 9.501360 0.000000
    CHANNELS 3 Yrotation Xrotation Zrotation
    JOINT Chest4
    {
     OFFSET 0.000000 9.491660 0.000000
     CHANNELS 3 Yrotation Xrotation Zrotation
     JOINT Neck
     {
      OFFSET 0.000000 14.331917 0.000000
      CHANNELS 3 Yrotation Xrotation Zrotation
      JOINT Head
      {
       OFFSET 0.000000 8.884799 0.017034
       CHANNELS 3 Yrotation Xrotation Zrotation
       End Site
       {
        OFFSET 0.000000 16.896195 0.008993
       }
      }
     }
     JOINT RightCollar
     {
      OFFSET -2.923010 9.499495 0.000000
      CHANNELS 3 Yrotation Xrotation Zrotation
      JOINT RightShoulder
      {
       OFFSET -13.795216 0.000000 0.000000
       CHANNELS 3 Yrotation Xrotation Zrotation
       JOINT RightElbow
       {
        OFFSET -30.272209 0.000000 0.000000
        CHANNELS 3 Yrotation Xrotation Zrotation
        JOINT RightWrist
        {
         OFFSET -24.478199 0.000000 0.000000
         CHANNELS 3 Yrotation Xrotation Zrotation
         End Site
         {
          OFFSET -18.090752 0.000000 0.000000
         }
        }
       }
      }
     }
     JOINT LeftCollar
     {
      OFFSET 2.923010 9.499495 0.000000
      CHANNELS 3 Yrotation Xrotation Zrotation
      JOINT LeftShoulder
      {
       OFFSET 13.795216 0.000000 0.000000
       CHANNELS 3 Yrotation Xrotation Zrotation
       JOINT LeftElbow
       {
        OFFSET 30.272209 0.000000 0.000000
        CHANNELS 3 Yrotation Xrotation Zrotation
        JOINT LeftWrist
        {
         OFFSET 24.478199 0.000000 0.000000
         CHANNELS 3 Yrotation Xrotation Zrotation
         End Site
         {
          OFFSET 18.090752 0.000000 0.000000
         }
        }
       }
      }
     }
    }
   }
  }
 }
 JOINT RightHip
 {
  OFFSET -7.826875 0.019532 0.001973
  CHANNELS 3 Yrotation Xrotation Zrotation
  JOINT RightKnee
  {
   OFFSET 0.000000 -40.546152 -0.001885
   CHANNELS 3 Yrotation Xrotation Zrotation
   JOINT RightAnkle
   {
    OFFSET 0.000000 -39.417092 -0.003189
    CHANNELS 3 Yrotation Xrotation Zrotation
    JOINT RightToe
    {
     OFFSET 0.000000 -7.579396 17.243563
     CHANNELS 3 Yrotation Xrotation Zrotation
     End Site
     {
      OFFSET 0.000000 -1.500329 6.694466
     }
    }
   }
  }
 }
 JOINT LeftHip
 {
  OFFSET 7.826875 0.019532 0.001973
  CHANNELS 3 Yrotation Xrotation Zrotation
  JOINT LeftKnee
  {
   OFFSET 0.000000 -40.546152 -0.001885
   CHANNELS 3 Yrotation Xrotation Zrotation
   JOINT LeftAnkle
   {
    OFFSET 0.000000 -39.417092 -0.003189
    CHANNELS 3 Yrotation Xrotation Zrotation
    JOINT LeftToe
    {
     OFFSET 0.000000 -7.579396 17.243563
     CHANNELS 3 Yrotation Xrotation Zrotation
     End Site
     {
      OFFSET 0.000000 -1.500329 6.694466
     }
    }
   }
  }
 }
}
MOTION
Frames: 15
Frame Time: 0.008333
0.000000 87.345680 0.000000 0.000000 -5.767889 0.000000 0.000000 11.653876 0.000000 0.000000 -5.885988 0.000000 0.000000 -0.000000 0.000000 0.000000 -0.000000 0.000000 0.000000 12.528808 0.000000 0.000000 0.711711 0.000000 0.000000 -0.000000 0.000000 0.000000 -0.000000 0.000000 2.309063 -0.000000 0.000000 -2.309063 -0.000000 -0.000000 0.000000 -0.000000 0.000000 0.000000 0.000000 0.000000 -2.309063 0.000000 0.000000 2.309063 -0.000000 0.000000 0.000000 8.520374 0.000000 0.000000 1.905768 0.000000 -0.000000 -4.658254 0.000000 0.000000 -0.000000 0.000000 0.000000 8.520374 0.000000 0.000000 1.905768 0.000000 -0.000000 -4.658254 0.000000 0.000000 -0.000000 0.000000
-7.290036 88.847235 -39.295582 130.384000 -8.729065 0.323531 -0.740739 2.694636 0.287247 -0.455666 1.544079 0.235176 -0.568644 1.930386 0.292076 -0.455667 1.544079 0.235176 -19.217509 22.134031 -0.273960 -22.611397 -0.045351 4.175878 3.244662 3.518372 -2.938523 -7.516087 -1.331271 89.548542 -0.991858 7.623989 -1.014563 2.271519 -2.407798 -1.725013 4.065643 3.005802 0.839277 5.383332 -1.397841 -91.779878 -2.607024 4.183698 0.059422 -0.216341 4.831962 1.184064 -4.396324 8.440703 -7.723521 4.415300 4.469403 -0.770310 -2.637166 -4.961758 5.927713 0.019750 -0.128148 -0.003548 17.262324 11.246273 5.770095 1.081647 -2.507525 0.060640 7.744294 -0.591280 -4.049557 0.020537 0.196008 -0.018133
-7.261778 88.847908 -39.294043 130.338062 -8.745988 0.298422 -0.765648 2.692575 0.293363 -0.471022 1.540997 0.238603 -0.587827 1.926548 0.296299 -0.471022 1.540998 0.238603 -19.911894 22.120600 -0.358717 -23.524613 0.068380 4.237702 3.275796 3.518908 -2.935029 -7.473157 -1.402132 89.550500 -0.905627 7.653335 -0.986621 2.290322 -2.409986 -1.747211 4.073683 3.005713 0.833129 5.426845 -1.392105 -91.741372 -2.596610 4.160622 0.048947 -0.144895 4.859390 1.110750 -4.340181 8.472850 -7.679762 4.405495 4.462497 -0.764424 -2.636199 -4.963400 5.905922 0.024135 -0.134369 0.001964 17.255845 11.269270 5.805756 1.103789 -2.494169 0.072900 7.799142 -0.613372 -4.068068 0.023751 0.199423 -0.017221
-7.230607 88.848568 -39.293034 130.286647 -8.762244 0.274173 -0.789430 2.689696 0.299248 -0.485510 1.538001 0.242442 -0.605924 1.922817 0.301042 -0.485510 1.538001 0.242442 -20.568478 22.109231 -0.446761 -24.394398 0.180199 4.285390 3.301046 3.518472 -2.929455 -7.436109 -1.476488 89.546903 -0.816000 7.675449 -0.953122 2.304577 -2.409964 -1.767034 4.077344 3.004018 0.826482 5.465375 -1.385933 -91.699223 -2.583195 4.152008 0.038157 -0.064669 4.889922 1.037314 -4.283605 8.502568 -7.636561 4.398083 4.459888 -0.757073 -2.632165 -4.969169 5.884043 0.027331 -0.139546 0.005452 17.250016 11.296985 5.846444 1.128546 -2.485017 0.082523 7.840460 -0.634774 -4.090359 0.024550 0.201168 -0.016263
-7.197504 88.849219 -39.292891 130.226954 -8.779814 0.251266 -0.811519 2.686441 0.304787 -0.498727 1.535279 0.246431 -0.622433 1.919428 0.305977 -0.498727 1.535279 0.246431 -21.185094 22.100007 -0.538496 -25.216238 0.289112 4.317994 3.322084 3.517811 -2.922322 -7.406396 -1.555225 89.537889 -0.723637 7.695061 -0.912576 2.312937 -2.408840 -1.785171 4.077339 3.003188 0.822621 5.498683 -1.379523 -91.658555 -2.569100 4.156854 0.031373 0.019664 4.927227 0.969049 -4.227245 8.530143 -7.595112 4.395542 4.463043 -0.748082 -2.625382 -4.979944 5.863454 0.029371 -0.143413 0.006473 17.242725 11.330141 5.887734 1.159078 -2.477651 0.088908 7.886705 -0.656705 -4.113807 0.024699 0.202022 -0.013807
-7.163163 88.849892 -39.293985 130.155968 -8.801901 0.229863 -0.831893 2.683589 0.310540 -0.510709 1.533214 0.250241 -0.637397 1.916861 0.310692 -0.510709 1.533215 0.250241 -21.759225 22.093329 -0.633490 -25.985315 0.394510 4.335507 3.341658 3.518702 -2.914920 -7.383793 -1.638506 89.526719 -0.632127 7.714935 -0.869252 2.319703 -2.410761 -1.800705 4.077603 3.003562 0.823703 5.521880 -1.368874 -91.622870 -2.557519 4.174440 0.033638 0.099555 4.971705 0.908705 -4.170394 8.559191 -7.556700 4.399407 4.469650 -0.736500 -2.614494 -4.994389 5.842135 0.031121 -0.146218 0.006975 17.233044 11.370250 5.928679 1.195160 -2.468235 0.092032 7.946003 -0.681316 -4.136796 0.025081 0.202036 -0.010368
-7.128513 88.850550 -39.296578 130.074275 -8.828976 0.211278 -0.851731 2.681417 0.316227 -0.522047 1.531967 0.253719 -0.651556 1.915314 0.314994 -0.522047 1.531967 0.253719 -22.287881 22.089157 -0.731086 -26.696204 0.495157 4.338151 3.360805 3.521362 -2.906968 -7.363477 -1.725024 89.514148 -0.543717 7.732143 -0.828634 2.326241 -2.417615 -1.808444 4.078689 3.003651 0.827195 5.531549 -1.351837 -91.589508 -2.548658 4.200123 0.045310 0.170357 5.017896 0.856086 -4.114361 8.590410 -7.523959 4.409706 4.478289 -0.720763 -2.599789 -5.011765 5.818935 0.033170 -0.147801 0.007618 17.219459 11.418764 5.970538 1.234152 -2.457813 0.091191 8.007065 -0.707300 -4.158771 0.024290 0.199941 -0.008043
-7.094573 88.851082 -39.300566 129.982753 -8.858047 0.196866 -0.871051 2.679300 0.321070 -0.532869 1.530884 0.256562 -0.665073 1.913972 0.318504 -0.532869 1.530885 0.256562 -22.769339 22.086946 -0.829777 -27.345512 0.589560 4.327540 3.379056 3.525328 -2.895718 -7.341077 -1.814546 89.499069 -0.458126 7.741222 -0.792132 2.332440 -2.428021 -1.809752 4.079390 3.003775 0.831027 5.528728 -1.332117 -91.554541 -2.537570 4.230089 0.063054 0.237395 5.061442 0.806580 -4.058391 8.618926 -7.498834 4.426125 4.492008 -0.699585 -2.581652 -5.033347 5.793194 0.035453 -0.148004 0.008829 17.199654 11.473341 6.009444 1.276641 -2.447699 0.087488 8.071253 -0.732672 -4.179624 0.022377 0.195662 -0.006493
-7.061993 88.851348 -39.305344 129.881593 -8.884375 0.185541 -0.889700 2.676400 0.325136 -0.543212 1.529046 0.258951 -0.677995 1.911685 0.321450 -0.543212 1.529047 0.258951 -23.203211 22.086042 -0.927475 -27.931975 0.676484 4.306326 3.396868 3.528740 -2.881807 -7.319716 -1.906035 89.480279 -0.373323 7.745212 -0.755090 2.341581 -2.441412 -1.811558 4.082996 3.004293 0.835445 5.516559 -1.311708 -91.518244 -2.523819 4.265912 0.082579 0.306914 5.100996 0.756598 -3.998664 8.638908 -7.479851 4.445853 4.512892 -0.672469 -2.558213 -5.059635 5.764069 0.037710 -0.147018 0.011158 17.172071 11.528685 6.042262 1.323285 -2.438248 0.082565 8.147304 -0.757340 -4.199991 0.020305 0.190799 -0.004326
-7.031113 88.851264 -39.310463 129.771558 -8.904287 0.176558 -0.907936 2.671497 0.329480 -0.553305 1.525810 0.261355 -0.690604 1.907650 0.324419 -0.553305 1.525810 0.261355 -23.589743 22.086475 -1.023368 -28.454952 0.755642 4.275763 3.416077 3.530899 -2.868727 -7.304424 -1.996684 89.456811 -0.288147 7.750397 -0.714609 2.353784 -2.456462 -1.814547 4.091042 3.005087 0.839652 5.497917 -1.288583 -91.482141 -2.510146 4.307924 0.102170 0.380733 5.139741 0.709062 -3.931596 8.647161 -7.464321 4.466948 4.540734 -0.641073 -2.532582 -5.090055 5.732144 0.039047 -0.144827 0.014408 17.139202 11.580627 6.067480 1.372589 -2.430315 0.077123 8.240010 -0.781436 -4.219213 0.018881 0.186609 -0.001361
-7.002072 88.850791 -39.315646 129.655691 -8.915236 0.169541 -0.925848 2.663060 0.334999 -0.563220 1.520730 0.264014 -0.702991 1.901311 0.327709 -0.563220 1.520730 0.264014 -23.929804 22.089412 -1.116682 -28.914804 0.828401 4.237148 3.436164 3.534500 -2.858857 -7.293720 -2.086430 89.432465 -0.202440 7.757896 -0.674314 2.367058 -2.468532 -1.820438 4.099254 3.007562 0.842214 5.476479 -1.266110 -91.446974 -2.493226 4.355123 0.124636 0.458240 5.182572 0.663382 -3.858101 8.643000 -7.450503 4.489402 4.572693 -0.608095 -2.507031 -5.122935 5.698158 0.039339 -0.141500 0.018773 17.103794 11.626143 6.086731 1.424909 -2.424354 0.071547 8.335616 -0.804983 -4.237575 0.017707 0.183034 0.001006
-6.974443 88.849961 -39.320648 129.537636 -8.917441 0.162530 -0.944105 2.651309 0.341869 -0.573307 1.513919 0.267308 -0.715592 1.892810 0.331795 -0.573307 1.513919 0.267308 -24.223952 22.096046 -1.206253 -29.311697 0.896211 4.192163 3.454731 3.541187 -2.851492 -7.282972 -2.176146 89.409842 -0.115284 7.769729 -0.637191 2.383022 -2.475237 -1.833330 4.107583 3.013984 0.843215 5.452929 -1.249780 -91.413558 -2.470785 4.407347 0.150093 0.536531 5.229969 0.620607 -3.781812 8.628600 -7.435810 4.512116 4.605985 -0.576047 -2.481118 -5.156805 5.665244 0.039099 -0.137333 0.022299 17.067283 11.664526 6.103718 1.483399 -2.420475 0.065854 8.421429 -0.828447 -4.256196 0.016347 0.180328 0.002495
-6.947254 88.848939 -39.325949 129.422326 -8.916790 0.154913 -0.963765 2.638619 0.348998 -0.584320 1.506402 0.270913 -0.729350 1.883427 0.336268 -0.584321 1.506403 0.270913 -24.472555 22.107545 -1.290955 -29.645652 0.960512 4.142399 3.468806 3.549670 -2.844129 -7.271948 -2.262649 89.388689 -0.025684 7.789083 -0.604899 2.402642 -2.476482 -1.850976 4.117837 3.023955 0.845132 5.425413 -1.237855 -91.380813 -2.445570 4.464606 0.174312 0.611444 5.278068 0.585622 -3.708933 8.610884 -7.420623 4.534826 4.640628 -0.545526 -2.455091 -5.192584 5.636465 0.038743 -0.132665 0.022857 17.029856 11.700324 6.120803 1.547951 -2.417326 0.058541 8.499321 -0.852505 -4.274483 0.015555 0.178591 0.003972
-6.919889 88.847859 -39.332332 129.313216 -8.919128 0.149085 -0.985486 2.626493 0.355395 -0.596720 1.499078 0.273853 -0.744843 1.874285 0.339904 -0.596720 1.499078 0.273853 -24.677281 22.124468 -1.370729 -29.918410 1.022209 4.088438 3.478803 3.558431 -2.835939 -7.261436 -2.342454 89.369888 0.065266 7.811315 -0.579333 2.424947 -2.475423 -1.868697 4.129792 3.037296 0.850022 5.393355 -1.227761 -91.348733 -2.417442 4.526961 0.196781 0.681882 5.321692 0.557908 -3.647565 8.596213 -7.409636 4.561130 4.676199 -0.515221 -2.429020 -5.231795 5.610355 0.038656 -0.127231 0.021729 16.992465 11.740467 6.136608 1.614692 -2.416941 0.048206 8.577723 -0.875200 -4.290183 0.016186 0.177116 0.005863
-6.892326 88.846682 -39.339599 129.206137 -8.924264 0.146031 -1.009007 2.614247 0.362078 -0.610138 1.491965 0.276416 -0.761611 1.865409 0.343065 -0.610138 1.491966 0.276416 -24.839174 22.145686 -1.447123 -30.130516 1.079769 4.028855 3.489665 3.567713 -2.829251 -7.251190 -2.415917 89.352491 0.155789 7.827330 -0.558186 2.448698 -2.476324 -1.884449 4.145031 3.056451 0.856734 5.356973 -1.220751 -91.320265 -2.384407 4.591779 0.219122 0.752042 5.360048 0.538181 -3.596608 8.583498 -7.404504 4.592020 4.712618 -0.483029 -2.400106 -5.274604 5.583512 0.039251 -0.120883 0.020895 16.960865 11.785963 6.151261 1.680701 -2.421118 0.037008 8.653111 -0.895741 -4.305445 0.017173 0.175378 0.008097
